<?xml version="1.0" encoding="UTF-8"?>
<svg xmlns="http://www.w3.org/2000/svg" version="1.1" viewBox="0 0 2000 2000">
  <defs>
    <style>
      .cls-1 {
        fill: #7e4e24;
      }

      .cls-2 {
        fill: #f9ee8c;
      }
    </style>
  </defs>
  <!-- Generator: Adobe Illustrator 28.7.3, SVG Export Plug-In . SVG Version: 1.2.0 Build 164)  -->
  <g>
    <g id="Layer_1">
      <path class="cls-1" d="M1014.62,731.38c-8.17,30.64-22.16,34.08-38.4,38.3-46.18,11.99-46.04-31.01-31.42-53.45,16.94-25.99,47.13-47.1,77.93-51.88-2.46,1.11-3.82,50.97-8.11,67.03Z"/>
      <path class="cls-2" d="M983.81,767.81c-8.85,4.26-22.64,4.77-29.45,3.06-1.05-16.06,1.02-53.79,30.64-80.34,11.43-10.25,22.48-16.65,34.79-25.63.98-.19,1.95-.4,2.93-.55-.56.25-.94,1.7-1.21,3.77-26.01,26.94-36.85,38.69-39.45,77.77-.38,7.23-.64,14.09,1.74,21.92Z"/>
    </g>
  </g>
</svg>