<?xml version="1.0" encoding="UTF-8"?>
<svg id="Layer_1" xmlns="http://www.w3.org/2000/svg" viewBox="0 0 86.61 107.43">
  <defs>
    <style>
      .cls-1 {
        fill: #7e4e24;
      }

      .cls-2 {
        fill: #f9ee8c;
      }
    </style>
  </defs>
  <path class="cls-1" d="M78.5,67.03c-8.17,30.64-22.16,34.08-38.4,38.3C-6.08,117.33-5.95,74.32,8.68,51.88,25.62,25.89,55.81,4.79,86.61,0c-2.46,1.11-3.82,50.97-8.11,67.03Z"/>
  <path class="cls-2" d="M47.69,103.46c-8.85,4.26-22.64,4.77-29.45,3.06-1.05-16.06,1.02-53.79,30.64-80.34C60.31,15.93,71.36,9.52,83.67.55c.98-.19,1.95-.4,2.93-.55-.56.25-.94,1.7-1.21,3.77-26.01,26.94-36.85,38.69-39.45,77.77-.38,7.23-.64,14.09,1.74,21.92Z"/>
</svg>