<svg width="398" height="116" viewBox="0 0 398 116" fill="none" xmlns="http://www.w3.org/2000/svg">
<path d="M245.861 92.2835C241.094 92.2835 236.938 91.3362 233.393 89.4416C229.848 87.5469 227.098 84.9189 225.142 81.5575C223.187 78.1349 222.209 74.1318 222.209 69.548C222.209 65.0254 223.064 61.0528 224.776 57.6303C226.487 54.1466 228.84 51.4269 231.835 49.4712C234.89 47.4543 238.374 46.4459 242.286 46.4459C245.219 46.4459 247.878 47.0265 250.261 48.1877C252.706 49.2878 254.692 50.9074 256.22 53.0465C255.487 55.5523 253.714 57.3552 250.903 58.4553C248.886 55.7051 246.105 54.3299 242.561 54.3299C239.016 54.3299 236.143 55.6745 233.943 58.3637C231.804 60.9917 230.734 64.567 230.734 69.0897C230.734 73.7345 232.079 77.4627 234.768 80.274C237.518 83.0854 241.399 84.4911 246.411 84.4911C247.205 84.4911 247.847 84.8884 248.336 85.6829C248.886 86.4163 249.161 87.3636 249.161 88.5248C249.161 89.686 248.856 90.6028 248.244 91.2751C247.694 91.9473 246.9 92.2835 245.861 92.2835Z" fill="black"/>
<path d="M245.988 92.2835C245.133 92.2835 244.46 91.9168 243.971 91.1834C243.421 90.45 243.146 89.5027 243.146 88.3414C243.146 87.1191 243.452 86.1718 244.063 85.4995C244.674 84.8272 245.469 84.4911 246.447 84.4911C250.114 84.4911 253.475 83.5132 256.531 81.5575C259.648 79.5406 262.215 76.8209 264.232 73.3984C264.109 72.4816 264.048 71.5038 264.048 70.4648C264.048 65.8199 264.965 61.6945 266.799 58.0886C268.632 54.4827 271.107 51.6408 274.224 49.5628C277.402 47.4849 281.008 46.4459 285.042 46.4459C287.181 46.4459 289.29 46.8737 291.368 47.7293C293.446 48.5239 295.187 49.624 296.593 51.0296V47.271C297.143 47.0876 297.785 46.9348 298.518 46.8126C299.252 46.6903 300.016 46.6292 300.81 46.6292C302.277 46.6292 303.652 46.8431 304.935 47.271V74.9569C304.935 78.3183 305.363 80.7324 306.219 82.1992C307.136 83.666 308.572 84.3994 310.528 84.3994C311.383 84.3994 312.025 84.7661 312.453 85.4995C312.942 86.2329 313.186 87.2108 313.186 88.4331C313.186 89.411 312.911 90.2972 312.361 91.0917C311.872 91.8862 311.047 92.2835 309.886 92.2835C304.08 92.2835 300.168 89.8999 298.152 85.1328C296.379 87.3941 294.24 89.1665 291.734 90.45C289.228 91.6723 286.448 92.2835 283.392 92.2835C279.725 92.2835 276.486 91.4584 273.674 89.8083C270.924 88.1581 268.724 85.8662 267.074 82.9326C264.507 85.9273 261.42 88.2498 257.814 89.8999C254.209 91.489 250.266 92.2835 245.988 92.2835ZM272.574 70.4648C272.574 74.8041 273.552 78.2266 275.508 80.7324C277.525 83.1771 280.275 84.3994 283.759 84.3994C287.609 84.3994 290.695 83.0854 293.018 80.4574C295.401 77.8294 296.593 74.3763 296.593 70.0981V59.8305C295.371 58.1803 293.812 56.8663 291.918 55.8884C290.023 54.8494 288.067 54.3299 286.05 54.3299C283.422 54.3299 281.1 55.0328 279.083 56.4385C277.066 57.8442 275.477 59.7693 274.316 62.214C273.155 64.5976 272.574 67.3478 272.574 70.4648Z" fill="black"/>
<path d="M337.949 116C332.815 116 329.118 114.105 326.856 110.316C323 103 323.517 96.4435 323.604 86.3246C321.526 88.4637 319.386 89.9916 317.186 90.9084C315.047 91.8251 312.633 92.2835 309.944 92.2835C309.149 92.2835 308.508 91.9168 308.019 91.1834C307.53 90.45 307.285 89.5027 307.285 88.3414C307.285 87.1191 307.591 86.1718 308.202 85.4995C308.752 84.7661 309.516 84.3994 310.494 84.3994C312.633 84.3994 314.742 83.6966 316.82 82.2909C318.898 80.8241 321.159 78.5016 323.604 75.3236V22.2436C323.604 18.9433 323.848 15.9486 324.337 13.2595C324.887 10.5092 325.834 8.1562 327.179 6.20046C328.279 4.55031 329.685 3.20574 331.396 2.16676C333.168 1.12777 335.369 0.608276 337.997 0.608276C342.764 0.608276 346.431 2.74736 348.998 7.02554C351.564 11.3037 352.848 17.3543 352.848 25.1772C352.848 43.8179 347.134 60.0138 335.705 73.7651C339.738 75.1097 343.191 77.9822 346.064 82.3826C348.142 83.7271 350.281 84.3994 352.481 84.3994C353.276 84.3994 353.917 84.7661 354.406 85.4995C354.895 86.2329 355.14 87.2108 355.14 88.4331C355.14 89.5943 354.834 90.5111 354.223 91.1834C353.673 91.9168 352.879 92.2835 351.84 92.2835C351.412 92.2835 351.014 92.2835 350.648 92.2835C351.84 97.5 352.92 104 349.5 109.858C346.861 114.379 343.022 116 337.949 116ZM331.763 20.3184V66.0644C335.919 60.3805 339.097 54.0244 341.297 46.9959C343.558 39.9064 344.689 32.6029 344.689 25.0856C344.689 19.585 344.108 15.3985 342.947 12.5261C341.847 9.65356 340.197 8.21732 337.997 8.21732C333.841 8.21732 331.763 12.251 331.763 20.3184ZM333.182 104.999C334.221 107.321 335.963 108.483 338.407 108.483C340.669 108.483 342.778 106.995 344 104C345.5 100.325 344.5 94.5 341.664 89.8999C339.647 89.0443 337.752 88.0359 335.98 86.8746C334.268 85.7134 332.863 84.4911 331.763 83.2076C331.763 89.5 331 99.5 333.182 104.999Z" fill="black"/>
<path d="M351.84 92.2835C351.045 92.2835 350.404 91.9168 349.915 91.1834C349.426 90.45 349.182 89.5027 349.182 88.3414C349.182 85.7134 350.281 84.3994 352.481 84.3994C354.254 84.3994 356.057 84.1244 357.891 83.5743C359.724 82.9632 361.863 81.9547 364.308 80.5491C361.925 76.3931 360.733 71.5038 360.733 65.881C360.733 62.0918 361.436 58.7609 362.841 55.8884C364.247 52.9548 366.203 50.6629 368.708 49.0128C371.214 47.3015 374.056 46.4459 377.234 46.4459C379.923 46.4459 382.307 47.0876 384.385 48.3711C386.463 49.5934 388.083 51.3047 389.244 53.5049C390.405 55.7051 390.986 58.2414 390.986 61.1139C390.986 65.0254 389.824 68.6007 387.502 71.8399C385.241 75.0791 381.39 78.5933 375.951 82.3826C377.907 83.7882 380.535 84.4911 383.835 84.4911C385.607 84.4911 387.38 84.2466 389.152 83.7577C390.924 83.2688 392.636 82.5965 394.286 81.7408C395.203 82.4131 395.875 83.4215 396.303 84.7661C396.792 86.0496 397.036 87.3025 397.036 88.5248C395.019 89.686 392.88 90.6028 390.619 91.2751C388.358 91.9473 385.974 92.2835 383.468 92.2835H383.377C380.443 92.2835 377.693 91.7945 375.126 90.8167C372.559 89.8388 370.42 88.4942 368.708 86.783C362.841 90.45 357.218 92.2835 351.84 92.2835ZM368.708 65.1476C368.708 69.9758 369.564 73.8262 371.275 76.6987C375.248 73.9484 378.182 71.2593 380.076 68.6313C382.032 66.0033 383.01 63.4975 383.01 61.1139C383.01 58.9137 382.46 57.2024 381.36 55.9801C380.321 54.6966 378.854 54.0549 376.959 54.0549C374.576 54.0549 372.589 55.1245 371 57.2636C369.472 59.4026 368.708 62.0307 368.708 65.1476Z" fill="black"/>
<path d="M251.5 43.3579C254.279 42.0308 257.452 44.2094 257.212 47.2792L256.604 55.0497C256.364 58.1195 252.891 59.7783 250.352 58.0355L243.927 53.624C241.388 51.8811 241.688 48.0439 244.467 46.7168L251.5 43.3579Z" fill="black"/>
<circle cx="243" cy="64" r="4" fill="black"/>
<path d="M5.60856 92.7334C2.98054 91.2055 1.26927 88.8831 0.474747 85.7661C2.43048 84.4215 4.4779 82.7408 6.61699 80.724C8.75607 78.646 10.6201 76.5986 12.2092 74.5817C11.3535 70.1813 10.9257 64.2224 10.9257 56.7051V31.2194C10.9257 26.1467 11.0785 22.0518 11.3841 18.9349C11.7508 15.8179 12.3314 13.2205 13.1259 11.1425C14.2871 8.08666 15.9679 5.73366 18.1681 4.08351C20.3683 2.43335 22.9657 1.60828 25.9605 1.60828C30.1164 1.60828 33.4473 3.65569 35.9531 7.75052C38.4588 11.7842 39.7117 17.2236 39.7117 24.0687C39.7117 29.3859 39.1922 34.6419 38.1533 39.8368C37.1754 44.9707 35.8308 49.8906 34.1195 54.5965C32.4083 59.3025 30.4525 63.6113 28.2523 67.5228C26.0521 71.4342 23.7602 74.7957 21.3767 77.607C21.4989 77.9126 21.6517 78.2182 21.8351 78.5238C23.1185 80.7851 24.6159 82.4658 26.3272 83.5659C28.0995 84.6049 30.2692 85.1244 32.8361 85.1244C35.5864 85.1244 38.0005 84.3604 40.0784 82.8325C42.1564 81.3046 43.776 79.1961 44.9372 76.5069C46.0984 73.7567 46.6791 70.6092 46.6791 67.0644C46.6791 65.7809 46.5874 64.4975 46.404 63.214C42.5537 60.7693 40.0173 58.5997 38.795 56.7051C39.2228 55.4827 39.8951 54.3215 40.8118 53.2214C41.7897 52.0602 42.8593 51.1434 44.0205 50.4712C45.1817 49.7378 46.2818 49.3711 47.3208 49.3711C48.7265 49.3711 50.0099 50.135 51.1711 51.6629C52.3324 53.1297 53.2491 55.116 53.9214 57.6218C54.6548 60.0665 55.0215 62.7862 55.0215 65.7809C55.0215 71.2814 54.1047 76.0791 52.2712 80.1739C50.4989 84.2076 47.9319 87.3552 44.5705 89.6165C41.2702 91.8167 37.3587 92.9168 32.8361 92.9168C24.7076 92.9168 18.8709 89.8609 15.3261 83.7493C14.1038 85.1549 12.6981 86.6218 11.1091 88.1497C9.52003 89.6776 7.68653 91.2055 5.60856 92.7334ZM18.6264 54.8716C18.6264 60.0665 18.7792 64.3141 19.0848 67.6144C21.4684 64.0085 23.638 59.822 25.5938 55.0549C27.5495 50.2267 29.0774 45.154 30.1775 39.8368C31.3387 34.4586 31.9193 29.172 31.9193 23.977C31.9193 14.1372 29.7803 9.21732 25.5021 9.21732C22.9963 9.21732 21.1933 10.898 20.0932 14.2595C19.1154 17.2542 18.6264 22.5408 18.6264 30.1193V54.8716Z" fill="black"/>
<path d="M81.2019 93.2835C72.34 93.2835 67.909 87.8441 67.909 76.9653V59.4553C66.0144 60.4943 63.8447 61.3194 61.4001 61.9306C59.0165 62.5417 56.4802 62.8473 53.791 62.8473C50.7963 62.8473 48.1989 62.4501 45.9986 61.6555C44.3485 61.1055 43.5234 60.0359 43.5234 58.4469C43.5234 57.2857 43.8596 56.3078 44.5318 55.5133C45.143 54.7188 45.8764 54.3215 46.732 54.3215C46.9765 54.3215 47.1904 54.3521 47.3738 54.4132C47.5571 54.4132 47.7405 54.4438 47.9238 54.5049C48.9628 54.7493 50.0018 54.9632 51.0408 55.1466C52.0798 55.2688 53.1493 55.3299 54.2494 55.3299C57.3664 55.3299 60.3305 54.6271 63.1419 53.2214C66.0144 51.7546 68.0007 49.9822 69.1008 47.9043C70.3843 47.782 71.6983 47.9348 73.0428 48.3626C74.3874 48.7905 75.4569 49.5239 76.2515 50.5628V75.9569C76.2515 79.3183 76.6793 81.7324 77.5349 83.1992C78.4517 84.666 79.8879 85.3994 81.8437 85.3994C82.6993 85.3994 83.341 85.7661 83.7688 86.4995C84.2578 87.2329 84.5022 88.2108 84.5022 89.4331C84.5022 90.411 84.2272 91.2972 83.6772 92.0917C83.1882 92.8862 82.3631 93.2835 81.2019 93.2835ZM72.5845 35.5281C70.8732 35.5281 69.4064 34.9169 68.184 33.6946C66.9617 32.4723 66.3505 31.0055 66.3505 29.2942C66.3505 27.4607 66.9311 25.9633 68.0924 24.8021C69.3147 23.6409 70.8121 23.0603 72.5845 23.0603C74.418 23.0603 75.9153 23.6409 77.0765 24.8021C78.2378 25.9633 78.8184 27.4607 78.8184 29.2942C78.8184 31.0666 78.2072 32.5639 76.9849 33.7863C75.8236 34.9475 74.3568 35.5281 72.5845 35.5281Z" fill="black"/>
<path d="M81.2384 93.2835C80.4439 93.2835 79.8022 92.9168 79.3133 92.1834C78.8243 91.45 78.5799 90.5027 78.5799 89.3414C78.5799 86.7134 79.68 85.3994 81.8802 85.3994C84.5693 85.3994 86.9529 84.2993 89.0308 82.0991C91.1699 79.8378 92.8506 76.7819 94.073 72.9316C95.3564 69.0812 95.9982 64.8031 95.9982 60.0971C95.9982 58.997 95.937 57.9885 95.8148 57.0718C95.6926 56.155 95.5398 55.3911 95.3564 54.7799C94.8064 54.2298 94.1952 53.3437 93.5229 52.1213C92.9118 50.899 92.3617 49.6155 91.8728 48.271C91.445 46.8653 91.231 45.7346 91.231 44.879C91.9645 43.7178 93.1257 42.8316 94.7147 42.2204C96.3649 41.5481 98.1678 41.3648 100.124 41.6703C101.285 43.8094 102.232 46.4986 102.965 49.7378C104.799 49.6766 107.274 49.2794 110.391 48.546C112.347 48.1182 113.905 47.8431 115.067 47.7209C116.289 47.5376 117.328 47.4459 118.184 47.4459C121.484 47.4459 124.081 48.6988 125.976 51.2046C127.871 53.6492 128.818 56.9801 128.818 61.1972V75.9569C128.818 79.3183 129.246 81.7324 130.101 83.1992C131.018 84.666 132.454 85.3994 134.41 85.3994C135.266 85.3994 135.907 85.7661 136.335 86.4995C136.824 87.2329 137.069 88.2108 137.069 89.4331C137.069 90.411 136.794 91.2972 136.244 92.0917C135.755 92.8862 134.93 93.2835 133.768 93.2835C124.906 93.2835 120.475 87.8441 120.475 76.9653V62.7556C120.475 60.0054 120.17 58.0802 119.559 56.9801C118.948 55.88 117.847 55.3299 116.258 55.3299C115.708 55.3299 115.097 55.3911 114.425 55.5133C113.753 55.6355 112.561 55.88 110.85 56.2467C107.855 56.8579 105.593 57.2246 104.066 57.3468C104.127 58.3247 104.157 59.3025 104.157 60.2804C104.157 66.881 103.21 72.6566 101.315 77.607C99.4207 82.5575 96.7316 86.4078 93.2479 89.1581C89.8254 91.9084 85.8222 93.2835 81.2384 93.2835Z" fill="black"/>
<path d="M134.432 85.3994C136.51 85.3994 138.527 84.391 140.483 82.3741C142.5 80.2962 144.18 77.5153 145.525 74.0317C145.464 73.1761 145.433 72.3204 145.433 71.4648C145.433 66.8199 146.35 62.6945 148.184 59.0886C150.017 55.4827 152.492 52.6408 155.609 50.5628C158.787 48.4849 162.393 47.4459 166.427 47.4459C168.566 47.4459 170.675 47.8737 172.753 48.7293C174.83 49.5239 176.572 50.624 177.978 52.0296V14.9929C179.139 14.565 180.545 14.3511 182.195 14.3511C183.601 14.3511 184.976 14.565 186.32 14.9929V75.9569C186.32 79.3183 186.748 81.7324 187.604 83.1992C188.521 84.666 189.957 85.3994 191.913 85.3994C192.585 85.3994 193.318 85.2466 194.113 84.941C194.907 84.6355 195.732 84.1771 196.588 83.5659C197.627 84.0548 198.483 84.9105 199.155 86.1328C199.827 87.294 200.133 88.4553 200.072 89.6165C199.094 90.7166 197.841 91.6028 196.313 92.2751C194.785 92.9473 193.135 93.2835 191.363 93.2835H191.271C185.465 93.2835 181.553 90.8999 179.536 86.1328C177.764 88.3941 175.625 90.1665 173.119 91.45C170.613 92.6723 167.833 93.2835 164.777 93.2835C161.232 93.2835 158.084 92.5195 155.334 90.9916C152.645 89.4026 150.445 87.2329 148.734 84.4827C144.944 90.3499 139.963 93.2835 133.791 93.2835C132.996 93.2835 132.354 92.9168 131.865 92.1834C131.376 91.45 131.132 90.5027 131.132 89.3414C131.132 86.7134 132.232 85.3994 134.432 85.3994ZM153.959 71.4648C153.959 75.8041 154.937 79.2266 156.893 81.7324C158.91 84.1771 161.66 85.3994 165.143 85.3994C168.994 85.3994 172.08 84.0854 174.403 81.4574C176.786 78.8294 177.978 75.3763 177.978 71.0981V60.8305C176.756 59.1803 175.197 57.8663 173.303 56.8884C171.408 55.8494 169.452 55.3299 167.435 55.3299C164.807 55.3299 162.485 56.0328 160.468 57.4385C158.451 58.8442 156.862 60.7693 155.701 63.214C154.54 65.5976 153.959 68.3478 153.959 71.4648Z" fill="black"/>
</svg>
