<svg width="64" height="64" viewBox="0 0 64 64" fill="none" xmlns="http://www.w3.org/2000/svg">
<path fill-rule="evenodd" clip-rule="evenodd" d="M12 0C5.37258 0 0 5.37258 0 12V52C0 58.6274 5.37258 64 12 64H34.1709V39.1693H25.8859V29.5744H34.1709V22.4985C34.1709 14.2869 39.1858 9.81559 46.5113 9.81559C50.02 9.81559 53.0359 10.0769 53.9149 10.1936V18.7752L48.834 18.7776C44.8503 18.7776 44.079 20.6706 44.079 23.4485V29.5744H53.5802L52.343 39.1693H44.079V64H52C58.6274 64 64 58.6274 64 52V12C64 5.37258 58.6274 0 52 0H12Z" fill="black"/>
</svg>
